<?xml version="1.0" encoding="utf-8"?>
<!-- Generator: Adobe Illustrator 24.0.1, SVG Export Plug-In . SVG Version: 6.00 Build 0)  -->
<svg version="1.1" xmlns="http://www.w3.org/2000/svg" xmlns:xlink="http://www.w3.org/1999/xlink" x="0px" y="0px"
	 viewBox="0 0 506 65" style="enable-background:new 0 0 506 65;" xml:space="preserve">
<style type="text/css">
	.st0{fill:#037DBE;}
	.st1{fill:#555555;}
	.st2{font-family:'HelveticaNeueLTPro-Cn';}
	.st3{font-size:9px;}
	.st4{font-family:'HelveticaNeueLTPro-Roman';}
	.st5{font-size:10px;}
	.st6{fill:none;stroke:#282E6E;stroke-width:4;stroke-miterlimit:10;}
	.st7{fill:#037DBE;stroke:#282E6E;stroke-width:4;stroke-miterlimit:10;}
	.st8{fill:none;stroke:#6BB2E2;stroke-width:4;stroke-miterlimit:10;}
	.st9{fill:#FFFFFF;}
	.st10{font-family:'HelveticaNeueLTPro-Bd';}
	.st11{font-size:17px;}
	.st12{display:none;}
	.st13{display:inline;fill:none;stroke:#0C2074;stroke-width:3;stroke-miterlimit:10;}
	.st14{fill:#D93F4D;}
	.st15{font-family:'HelveticaNeueLTStd-Bd';}
	.st16{font-size:11.5926px;}
	.st17{fill:#636466;}
	.st18{display:inline;}
	.st19{clip-path:url(#SVGID_2_);fill:none;stroke:#1B3280;stroke-width:2.58;stroke-miterlimit:10;}
	.st20{display:inline;fill:none;stroke:#1B3280;stroke-width:2.58;stroke-miterlimit:10;}
</style>
<g id="Background">
	<rect y="0.5" class="st0" width="506" height="25"/>
</g>
<g id="Message_1">
	<text transform="matrix(1 0 0 1 13.1826 36.7588)"><tspan x="0" y="0" class="st1 st2 st3">Automated Investor offered exclusively by U.S.A. Bancorp Investments. Eligible for a new account opened </tspan><tspan x="0" y="11" class="st1 st2 st3">5/15/20 - 8/15/20 with $5,000 minimum. No advisory fees for 365 calendar days starting after first trade.</tspan><tspan x="0" y="22" class="st1 st2 st3">After 365 calendar days, standard advisory fee of 0.24% of investable assets will apply.</tspan><tspan x="0" y="33" class="st1 st4 st5"> </tspan></text>
	<g>
		<g>
			<line class="st6" x1="-1315.58" y1="-1480.48" x2="-1407.7" y2="-1480.48"/>
			<line class="st6" x1="-1108.23" y1="-1480.48" x2="-1201.26" y2="-1480.48"/>
		</g>
		<g>
			<g>
				<ellipse class="st7" cx="-1258.42" cy="-1480.48" rx="57.16" ry="54.71"/>
			</g>
			<polyline class="st7" points="-1256.39,-1519.05 -1256.39,-1480.76 -1280.41,-1462.76 			"/>
		</g>
	</g>
	<ellipse class="st8" cx="-1200.62" cy="-1596.29" rx="63.83" ry="61.09"/>
	<polyline class="st8" points="-1198.35,-1639.35 -1198.35,-1596.6 -1225.17,-1576.51 	"/>
	<path class="st8" d="M-1350.09-1596.29h83.61 M-1137.83-1596.29h87.25"/>
	<text transform="matrix(1 0 0 1 13.2297 18.4401)" class="st9 st10 st11">Automated Investor: Invest with $0 advisory fees for a year</text>
</g>
<g id="icons">
	<g class="st12">
		<path class="st13" d="M65.14-61.36H18.68c-1.58,0-2.86,1.28-2.86,2.86v10.05v0.24v15.72c0,1.58,1.28,2.86,2.86,2.86h46.45
			c1.58,0,2.86-1.28,2.86-2.86v-26C68-60.08,66.72-61.36,65.14-61.36z"/>
		<path class="st13" d="M29.27-41.72H22.5c-0.34,0-0.62-0.25-0.62-0.56v-4.6c0-0.31,0.28-0.56,0.62-0.56h6.77
			c0.34,0,0.62,0.25,0.62,0.56v4.6C29.88-41.97,29.61-41.72,29.27-41.72z"/>
		<line class="st13" x1="21.56" y1="-36.53" x2="54.64" y2="-36.53"/>
		<line class="st13" x1="15.83" y1="-54.31" x2="67.56" y2="-54.31"/>
	</g>
	<g class="st12">
		<path class="st13" d="M65.14,206.64H18.68c-1.58,0-2.86,1.28-2.86,2.86v10.05v0.24v15.72c0,1.58,1.28,2.86,2.86,2.86h46.45
			c1.58,0,2.86-1.28,2.86-2.86v-26C68,207.92,66.72,206.64,65.14,206.64z"/>
		<path class="st13" d="M29.27,226.28H22.5c-0.34,0-0.62-0.25-0.62-0.56v-4.6c0-0.31,0.28-0.56,0.62-0.56h6.77
			c0.34,0,0.62,0.25,0.62,0.56v4.6C29.88,226.03,29.61,226.28,29.27,226.28z"/>
		<line class="st13" x1="21.56" y1="231.47" x2="54.64" y2="231.47"/>
		<line class="st13" x1="15.83" y1="213.69" x2="67.56" y2="213.69"/>
	</g>
</g>
<g id="Mandatories">
	<g>
		<path class="st14" d="M474.78,56.66h-78.06c-1.66,0-3-1.34-3-3V36.34c0-1.66,1.34-3,3-3h78.06c1.66,0,3,1.34,3,3v17.32
			C477.78,55.32,476.44,56.66,474.78,56.66z"/>
		<text transform="matrix(1 0 0 1 403.9522 48.5491)" class="st9 st15 st16">Learn more</text>
	</g>
</g>
<g id="Borders">
	<g>
		<path class="st17" d="M505.5,0.5v64H0.5v-64H505.5 M506,0H0v65h506V0L506,0z"/>
	</g>
</g>
<g id="Labels" class="st12">
	<text transform="matrix(1 0 0 1 -784.6181 -931.2829)" class="st15" style="display:inline;fill:#282E6E; font-size:14px;">728x90</text>
	<g class="st18">
		<g>
			<defs>
				<rect id="SVGID_1_" x="-1217.24" y="-1408.5" width="133.18" height="132"/>
			</defs>
			<clipPath id="SVGID_2_">
				<use xlink:href="#SVGID_1_"  style="overflow:visible;"/>
			</clipPath>
			<path class="st19" d="M-1150.65-1279.84c34.93,0,63.26-28.06,63.26-62.67c0-34.61-28.32-62.66-63.26-62.66
				s-63.26,28.06-63.26,62.66C-1213.91-1307.89-1185.58-1279.84-1150.65-1279.84z"/>
		</g>
	</g>
	<polyline class="st20" points="-1140.29,-1505.28 -1124.29,-1461.79 -1150.65,-1440.78 	"/>
</g>
<g id="message_2">
</g>
</svg>
