<?xml version="1.0" encoding="utf-8"?>
<!-- Generator: Adobe Illustrator 16.0.4, SVG Export Plug-In . SVG Version: 6.00 Build 0)  -->
<!DOCTYPE svg PUBLIC "-//W3C//DTD SVG 1.1//EN" "http://www.w3.org/Graphics/SVG/1.1/DTD/svg11.dtd">
<svg version="1.1" xmlns="http://www.w3.org/2000/svg" xmlns:xlink="http://www.w3.org/1999/xlink" x="0px" y="0px" width="68px"
	 height="68px" viewBox="0 0 68 68" enable-background="new 0 0 68 68" xml:space="preserve">
<g id="Ellipse_1_copy_1_" enable-background="new    ">
	<g id="Ellipse_1_copy">
		<g>
			<circle fill="#FC3E39" cx="34" cy="34" r="34"/>
		</g>
	</g>
</g>
<g id="Shape_5_1_" enable-background="new    ">
	<g id="Shape_5">
		<g>
			<path fill="#FFFFFF" d="M37.355,12.529c-0.058-0.808-0.378-1.514-0.967-2.114c-0.577-0.59-1.308-0.917-2.187-0.985
				c-0.104-0.009-0.214-0.014-0.325-0.014c-0.003,0-0.007,0.001-0.011,0.001c-0.005,0-0.01-0.001-0.016-0.001
				c-0.786,0-1.518,0.326-2.198,0.979c-0.616,0.593-0.951,1.315-1.007,2.161c-0.005,0.084-0.012,0.169-0.012,0.256
				c0,0.106,0.007,0.208,0.015,0.311l0.019,0.154l1.192,29.908l0.009,0.166c0.049,0.497,0.256,0.929,0.622,1.296
				c0.394,0.393,0.865,0.603,1.412,0.629c0.038,0.002,0.079,0.004,0.12,0.004s0.079-0.002,0.119-0.004
				c0.537-0.026,1.006-0.236,1.4-0.629c0.359-0.36,0.564-0.786,0.618-1.277c0.01-0.089,0.016-0.177,0.016-0.27v-0.021l1.133-29.643
				l0.047-0.382c0.006-0.087,0.011-0.174,0.011-0.263S37.361,12.617,37.355,12.529z M34,50c-1.657,0-3,1.343-3,3s1.343,3,3,3
				s3-1.343,3-3S35.657,50,34,50z"/>
		</g>
	</g>
</g>
</svg>
