<svg id="Layer_1" data-name="Layer 1" xmlns="http://www.w3.org/2000/svg" viewBox="0 0 223 170"><defs><style>.cls-1{fill:#303030;}.cls-2{fill:#0c2074;}.cls-3{fill:#d93f4d;}.cls-4{fill:#fff;}.cls-5{fill:#00675f;opacity:0.9;}.cls-6{fill:#81bd41;}.cls-7{fill:#67b2e8;}.cls-8{fill:#a0ca6c;}.cls-9{fill:#231f20;}</style></defs><title>327803 2020 Student Scholarship Online Banking Banner Ad</title><path class="cls-1" d="M82.52,21.15a4,4,0,0,1,2.69.84,2.88,2.88,0,0,1,1,2.32H84.94a2.15,2.15,0,0,0-2.48-2,2.67,2.67,0,0,0-1.66.44A1.5,1.5,0,0,0,80.22,24a1.19,1.19,0,0,0,.44.91,7.67,7.67,0,0,0,2.77.87,5.37,5.37,0,0,1,2.4,1,2.35,2.35,0,0,1,.79,1.89,2.48,2.48,0,0,1-1.15,2.18,4.84,4.84,0,0,1-2.75.8,4.51,4.51,0,0,1-3-.95,3.19,3.19,0,0,1-1.12-2.58h1.26a2.17,2.17,0,0,0,.81,1.79,3.38,3.38,0,0,0,2.1.62A3.21,3.21,0,0,0,84.63,30a1.55,1.55,0,0,0,.66-1.35,1.32,1.32,0,0,0-.64-1.16,6.42,6.42,0,0,0-2.17-.72,6.49,6.49,0,0,1-2.89-1.06,2.13,2.13,0,0,1-.7-1.67,2.59,2.59,0,0,1,1-2.13A4.08,4.08,0,0,1,82.52,21.15Z"/><path class="cls-1" d="M89.8,22v2.17h1.44v1.05H89.8v4.54a.7.7,0,0,0,.12.46,1,1,0,0,0,.63.14h.69v1.05h-1A2,2,0,0,1,89,31.07a1.53,1.53,0,0,1-.36-1.2V25.19H87.38V24.14h1.23V22Z"/><path class="cls-1" d="M93.72,24.14v4.93a1.42,1.42,0,0,0,.39,1,1.44,1.44,0,0,0,1.08.4,2,2,0,0,0,1.6-.62,2.36,2.36,0,0,0,.54-1.61V24.14h1.19v7.24H97.4V30.23h0A2.51,2.51,0,0,1,95,31.55q-2.49,0-2.49-2.58V24.14Z"/><path class="cls-1" d="M106.92,21.38v10h-1.19v-1h0a1.89,1.89,0,0,1-.89.85,3.19,3.19,0,0,1-1.42.3A3.06,3.06,0,0,1,101,30.5a4.05,4.05,0,0,1-.92-2.76A4.07,4.07,0,0,1,101,25a3,3,0,0,1,2.4-1,3.25,3.25,0,0,1,1.37.3,2.16,2.16,0,0,1,1,.84h0V21.38Zm-5.6,6.44a3,3,0,0,0,.62,1.94,2,2,0,0,0,1.62.74,2,2,0,0,0,1.62-.75,3.08,3.08,0,0,0,.6-2,3.11,3.11,0,0,0-.6-2,2.05,2.05,0,0,0-1.7-.76,1.89,1.89,0,0,0-1.6.75A3.39,3.39,0,0,0,101.32,27.82Z"/><path class="cls-1" d="M111.87,24a2.88,2.88,0,0,1,2.4,1.11,4.55,4.55,0,0,1,.87,2.9v.14h-5.42v.08a2.3,2.3,0,0,0,.61,1.68,2.2,2.2,0,0,0,1.65.62,1.7,1.7,0,0,0,1.87-1.42H115a3,3,0,0,1-1,1.85,3.28,3.28,0,0,1-2,.62,3.08,3.08,0,0,1-2.59-1.12,4.25,4.25,0,0,1-.89-2.72,3.85,3.85,0,0,1,1-2.67A3.15,3.15,0,0,1,111.87,24Zm2,3.1a2.21,2.21,0,0,0-.64-1.47,2,2,0,0,0-1.46-.58,1.94,1.94,0,0,0-1.4.56,2.29,2.29,0,0,0-.66,1.49Z"/><path class="cls-1" d="M120.08,24c1.66,0,2.49.87,2.49,2.59v4.82h-1.19V26.44A1.36,1.36,0,0,0,119.89,25a2,2,0,0,0-1.57.62,2.31,2.31,0,0,0-.55,1.61v4.13h-1.19V24.14h1.12v1.15h0A2.58,2.58,0,0,1,120.08,24Z"/><path class="cls-1" d="M126,22v2.17h1.45v1.05H126v4.54a.7.7,0,0,0,.13.46c.08.09.29.14.63.14h.69v1.05h-1a2,2,0,0,1-1.29-.31,1.53,1.53,0,0,1-.37-1.2V25.19h-1.23V24.14h1.23V22Z"/><path class="cls-1" d="M131.31,24a3.44,3.44,0,0,1,2.18.57,2.27,2.27,0,0,1,.78,1.7h-1.19a1.19,1.19,0,0,0-.51-.9A2.12,2.12,0,0,0,131.4,25a2.26,2.26,0,0,0-1.13.24.76.76,0,0,0-.41.69.75.75,0,0,0,.36.65,3.36,3.36,0,0,0,1.11.41l1.12.25A3.68,3.68,0,0,1,134,28a1.61,1.61,0,0,1,.55,1.3,2,2,0,0,1-.83,1.68,3.75,3.75,0,0,1-2.25.6,3.57,3.57,0,0,1-2.2-.61,2.31,2.31,0,0,1-.87-1.84h1.19a1.25,1.25,0,0,0,.54,1,2.3,2.3,0,0,0,1.41.37c1.17,0,1.75-.36,1.75-1.08a.86.86,0,0,0-.43-.76,6.54,6.54,0,0,0-1.82-.57,4.4,4.4,0,0,1-1.91-.74A1.63,1.63,0,0,1,128.6,26a1.8,1.8,0,0,1,.73-1.49A3.15,3.15,0,0,1,131.31,24Z"/><path class="cls-1" d="M137.57,24.14V25.7H136V24.14Zm0,5.69v1.55H136V29.83Z"/><path class="cls-1" d="M148.77,21.38a3.16,3.16,0,0,1,2.17.72,2.4,2.4,0,0,1,.81,1.9A2.34,2.34,0,0,1,150,26.54v0a1.58,1.58,0,0,1,1.13.72,4.28,4.28,0,0,1,.4,1.9,6.18,6.18,0,0,0,.16,1.37,2.22,2.22,0,0,0,.4.83h-1.48a.72.72,0,0,1-.16-.33c0-.11-.05-.25-.08-.44l-.06-1.09a3.93,3.93,0,0,0-.38-1.68,1.34,1.34,0,0,0-1.31-.73h-3.29v4.27H144v-10ZM148.18,26c1.49,0,2.24-.59,2.24-1.78a1.56,1.56,0,0,0-1.72-1.71h-3.36V26Z"/><path class="cls-1" d="M156.49,24a2.89,2.89,0,0,1,2.41,1.11,4.55,4.55,0,0,1,.87,2.9v.14h-5.42v.08a2.33,2.33,0,0,0,.6,1.68,2.2,2.2,0,0,0,1.65.62,1.71,1.71,0,0,0,1.88-1.42h1.17a3,3,0,0,1-1.05,1.85,3.28,3.28,0,0,1-2,.62A3.09,3.09,0,0,1,154,30.43a4.25,4.25,0,0,1-.88-2.72,3.84,3.84,0,0,1,1-2.67A3.17,3.17,0,0,1,156.49,24Zm2,3.1a2.16,2.16,0,0,0-.63-1.47A2,2,0,0,0,156.4,25a2,2,0,0,0-1.4.56,2.24,2.24,0,0,0-.65,1.49Z"/><path class="cls-1" d="M164.18,24a2.33,2.33,0,0,1,2.17,1.21h0v-1h1.12v6.69q0,3.49-3.34,3.49a3.57,3.57,0,0,1-2.16-.58,2,2,0,0,1-.85-1.55h1.19a1,1,0,0,0,.56.85,2.43,2.43,0,0,0,1.31.33c1.45,0,2.17-.93,2.17-2.77v-.45h0a2.11,2.11,0,0,1-.89,1,2.6,2.6,0,0,1-1.36.35,3,3,0,0,1-2.35-1,3.9,3.9,0,0,1-.88-2.66,4.18,4.18,0,0,1,.88-2.77A3.06,3.06,0,0,1,164.18,24Zm-2.07,3.69a3.33,3.33,0,0,0,.53,2,1.73,1.73,0,0,0,1.51.74,1.86,1.86,0,0,0,1.57-.77,3.26,3.26,0,0,0,.59-2,3,3,0,0,0-.55-1.87,1.8,1.8,0,0,0-1.53-.72,1.84,1.84,0,0,0-1.56.73A3,3,0,0,0,162.11,27.66Z"/><path class="cls-1" d="M170.6,21.38v1.46h-1.19V21.38Zm0,2.76v7.24h-1.19V24.14Z"/><path class="cls-1" d="M175,24a3.41,3.41,0,0,1,2.17.57,2.27,2.27,0,0,1,.78,1.7h-1.19a1.19,1.19,0,0,0-.51-.9,2.07,2.07,0,0,0-1.17-.31,2.26,2.26,0,0,0-1.13.24.76.76,0,0,0-.41.69.75.75,0,0,0,.36.65A3.55,3.55,0,0,0,175,27l1.12.25a3.78,3.78,0,0,1,1.6.71,1.63,1.63,0,0,1,.54,1.3,2,2,0,0,1-.82,1.68,3.79,3.79,0,0,1-2.26.6,3.59,3.59,0,0,1-2.2-.61,2.28,2.28,0,0,1-.86-1.84h1.19a1.25,1.25,0,0,0,.53,1,2.32,2.32,0,0,0,1.41.37c1.17,0,1.75-.36,1.75-1.08a.87.87,0,0,0-.42-.76,6.77,6.77,0,0,0-1.83-.57,4.45,4.45,0,0,1-1.91-.74,1.63,1.63,0,0,1-.57-1.32,1.81,1.81,0,0,1,.74-1.49A3.15,3.15,0,0,1,175,24Z"/><path class="cls-1" d="M181.35,22v2.17h1.44v1.05h-1.44v4.54a.65.65,0,0,0,.13.46c.08.09.29.14.63.14h.68v1.05h-1a2,2,0,0,1-1.28-.31,1.49,1.49,0,0,1-.37-1.2V25.19h-1.23V24.14h1.23V22Z"/><path class="cls-1" d="M187,24a2.89,2.89,0,0,1,2.41,1.11,4.55,4.55,0,0,1,.87,2.9v.14h-5.42v.08a2.33,2.33,0,0,0,.6,1.68,2.2,2.2,0,0,0,1.65.62A1.71,1.71,0,0,0,189,29.08h1.17a2.86,2.86,0,0,1-1.05,1.85,3.28,3.28,0,0,1-2,.62,3.09,3.09,0,0,1-2.59-1.12,4.25,4.25,0,0,1-.88-2.72,3.84,3.84,0,0,1,1-2.67A3.17,3.17,0,0,1,187,24Zm2,3.1a2.21,2.21,0,0,0-.64-1.47,2,2,0,0,0-1.46-.58,1.94,1.94,0,0,0-1.4.56,2.2,2.2,0,0,0-.66,1.49Z"/><path class="cls-1" d="M195.46,24v1.26a2.53,2.53,0,0,0-2,.71,3.21,3.21,0,0,0-.64,2.21v3.23h-1.19V24.14h1.12v1.53h0a2.66,2.66,0,0,1,2.49-1.7Z"/><path class="cls-1" d="M81.93,40q2.7,0,2.7,2v4.17c0,.27.13.41.38.41a1,1,0,0,0,.37-.07v.92a1.76,1.76,0,0,1-.86.2c-.67,0-1-.37-1-1.12A3.15,3.15,0,0,1,81,47.55,2.68,2.68,0,0,1,79.21,47a1.82,1.82,0,0,1-.64-1.5A2,2,0,0,1,79.2,44a6.08,6.08,0,0,1,2.93-.87,2.4,2.4,0,0,0,1.05-.3.68.68,0,0,0,.28-.6c0-.79-.54-1.19-1.61-1.19a2.23,2.23,0,0,0-1.33.33,1.35,1.35,0,0,0-.48,1H78.85C78.94,40.78,80,40,81.93,40Zm-2.1,5.46a.93.93,0,0,0,.37.79,1.68,1.68,0,0,0,1,.28A2.53,2.53,0,0,0,82.82,46a1.36,1.36,0,0,0,.62-1.13V43.64a1.89,1.89,0,0,1-.84.3l-1.21.18a2.28,2.28,0,0,0-1.18.43A1.09,1.09,0,0,0,79.83,45.43Z"/><path class="cls-1" d="M90.15,40c1.66,0,2.49.87,2.49,2.59v4.82H91.45V42.44A1.36,1.36,0,0,0,90,41a2,2,0,0,0-1.57.62,2.31,2.31,0,0,0-.55,1.61v4.13H86.65V40.14h1.12v1.15h0A2.58,2.58,0,0,1,90.15,40Z"/><path class="cls-1" d="M101,37.38v10H99.83v-1h0a1.84,1.84,0,0,1-.89.85,3.19,3.19,0,0,1-1.42.3,3.07,3.07,0,0,1-2.42-1,4.65,4.65,0,0,1,0-5.5,3,3,0,0,1,2.4-1,3.21,3.21,0,0,1,1.36.3,2.06,2.06,0,0,1,1,.84h0V37.38Zm-5.6,6.44A3,3,0,0,0,96,45.76a2,2,0,0,0,1.63.74,1.93,1.93,0,0,0,1.61-.75,3.58,3.58,0,0,0,0-4,2,2,0,0,0-1.7-.76,1.86,1.86,0,0,0-1.59.75A3.33,3.33,0,0,0,95.42,43.82Z"/><path class="cls-1" d="M110.05,40a3.44,3.44,0,0,1,2.14.63,2.61,2.61,0,0,1,1,1.87h-1.23A1.67,1.67,0,0,0,110.15,41a2,2,0,0,0-1.68.74,3.29,3.29,0,0,0-.58,2.09,3.06,3.06,0,0,0,.56,1.92,1.84,1.84,0,0,0,1.56.73,2,2,0,0,0,1.37-.46,2.1,2.1,0,0,0,.61-1.31h1.22a3.32,3.32,0,0,1-1,2.09,3.16,3.16,0,0,1-2.18.73,3.2,3.2,0,0,1-2.48-1,3.83,3.83,0,0,1-.91-2.71,4.14,4.14,0,0,1,.92-2.83A3.14,3.14,0,0,1,110.05,40Z"/><path class="cls-1" d="M117.8,40a3.3,3.3,0,0,1,2.57,1,4.41,4.41,0,0,1,0,5.47,3.26,3.26,0,0,1-2.57,1.07,3.31,3.31,0,0,1-2.55-1,3.87,3.87,0,0,1-1-2.75,3.94,3.94,0,0,1,.94-2.77A3.34,3.34,0,0,1,117.8,40Zm-2.25,3.8a3,3,0,0,0,.63,2,2,2,0,0,0,1.62.76,2,2,0,0,0,1.62-.75,2.93,2.93,0,0,0,.64-2,3,3,0,0,0-.63-2,2,2,0,0,0-1.64-.77,2,2,0,0,0-1.6.77A3,3,0,0,0,115.55,43.77Z"/><path class="cls-1" d="M126.33,40a1.85,1.85,0,0,1,2,1.24,2.4,2.4,0,0,1,1-.91A2.64,2.64,0,0,1,130.6,40a2.55,2.55,0,0,1,1.81.56A2,2,0,0,1,133,42v5.35H131.8v-4.8a1.78,1.78,0,0,0-.33-1.17A1.32,1.32,0,0,0,130.4,41a1.9,1.9,0,0,0-1.36.5,1.72,1.72,0,0,0-.53,1.31v4.55h-1.19v-4.8a1.78,1.78,0,0,0-.32-1.17,1.26,1.26,0,0,0-1-.39,1.85,1.85,0,0,0-.94.24,2,2,0,0,0-.71.72,1.78,1.78,0,0,0-.29.86v4.54h-1.19V40.14H124v1.07h0A2.64,2.64,0,0,1,126.33,40Z"/><path class="cls-1" d="M138.44,40A3,3,0,0,1,140.87,41a4.06,4.06,0,0,1,.9,2.76,4,4,0,0,1-.9,2.73,3.06,3.06,0,0,1-2.41,1,3.22,3.22,0,0,1-1.31-.28,2.14,2.14,0,0,1-1-.86h0v3.74h-1.19v-10h1.19v1h0A2.33,2.33,0,0,1,138.44,40Zm-2.38,3.78a3.12,3.12,0,0,0,.59,2,2.06,2.06,0,0,0,1.69.74,1.91,1.91,0,0,0,1.6-.74,3.28,3.28,0,0,0,.57-2.06,2.9,2.9,0,0,0-.61-1.93,2,2,0,0,0-1.65-.75,2,2,0,0,0-1.6.73A3.06,3.06,0,0,0,136.06,43.75Z"/><path class="cls-1" d="M144.53,37.38v10h-1.19v-10Z"/><path class="cls-1" d="M149.51,40a2.87,2.87,0,0,1,2.4,1.11,4.55,4.55,0,0,1,.87,2.9v.14h-5.42v.08a2.3,2.3,0,0,0,.61,1.68,2.2,2.2,0,0,0,1.65.62,1.7,1.7,0,0,0,1.87-1.42h1.18a3,3,0,0,1-1,1.85,3.28,3.28,0,0,1-2,.62A3.08,3.08,0,0,1,147,46.43a4.25,4.25,0,0,1-.89-2.72,3.85,3.85,0,0,1,1-2.67A3.15,3.15,0,0,1,149.51,40Zm2,3.1a2.25,2.25,0,0,0-.63-1.47,2,2,0,0,0-1.47-.58,1.94,1.94,0,0,0-1.4.56,2.29,2.29,0,0,0-.66,1.49Z"/><path class="cls-1" d="M155.73,38v2.17h1.45v1h-1.45v4.54a.65.65,0,0,0,.13.46c.08.09.29.14.63.14h.69v1.05h-1a2,2,0,0,1-1.28-.31,1.49,1.49,0,0,1-.37-1.2V41.19h-1.23v-1h1.23V38Z"/><path class="cls-1" d="M161.34,40a2.89,2.89,0,0,1,2.41,1.11,4.55,4.55,0,0,1,.87,2.9v.14H159.2v.08a2.33,2.33,0,0,0,.6,1.68,2.2,2.2,0,0,0,1.65.62,1.71,1.71,0,0,0,1.88-1.42h1.18a3,3,0,0,1-1,1.85,3.31,3.31,0,0,1-2.05.62,3.09,3.09,0,0,1-2.59-1.12,4.25,4.25,0,0,1-.88-2.72,3.8,3.8,0,0,1,1-2.67A3.13,3.13,0,0,1,161.34,40Zm2,3.1a2.21,2.21,0,0,0-.64-1.47,2,2,0,0,0-1.46-.58,1.94,1.94,0,0,0-1.4.56,2.29,2.29,0,0,0-.66,1.49Z"/><path class="cls-1" d="M173.15,40a3.29,3.29,0,0,1,2.56,1,4.41,4.41,0,0,1,0,5.47,3.25,3.25,0,0,1-2.56,1.07,3.32,3.32,0,0,1-2.56-1,3.87,3.87,0,0,1-1-2.75,4,4,0,0,1,1-2.77A3.33,3.33,0,0,1,173.15,40Zm-2.26,3.8a3,3,0,0,0,.63,2,2.12,2.12,0,0,0,3.24,0,2.93,2.93,0,0,0,.64-2,3,3,0,0,0-.63-2,2,2,0,0,0-1.64-.77,2,2,0,0,0-1.6.77A3,3,0,0,0,170.89,43.77Z"/><path class="cls-1" d="M179.35,40.14v4.93a1.36,1.36,0,0,0,1.47,1.43,2,2,0,0,0,1.6-.62,2.36,2.36,0,0,0,.54-1.61V40.14h1.19v7.24H183V46.23h0a2.49,2.49,0,0,1-2.35,1.32q-2.49,0-2.49-2.58V40.14Z"/><path class="cls-1" d="M189.83,40v1.26a2.56,2.56,0,0,0-2,.71,3.26,3.26,0,0,0-.64,2.21v3.23H186V40.14h1.13v1.53h0a2.66,2.66,0,0,1,2.5-1.7Z"/><path class="cls-1" d="M81.37,56a3.44,3.44,0,0,1,2.18.57,2.27,2.27,0,0,1,.78,1.7H83.14a1.17,1.17,0,0,0-.52-.9A2.06,2.06,0,0,0,81.46,57a2.23,2.23,0,0,0-1.13.24.78.78,0,0,0,0,1.34,3.36,3.36,0,0,0,1.11.41l1.12.25A3.68,3.68,0,0,1,84.1,60a1.61,1.61,0,0,1,.55,1.3A2,2,0,0,1,83.82,63a3.75,3.75,0,0,1-2.25.6,3.55,3.55,0,0,1-2.2-.61,2.31,2.31,0,0,1-.87-1.84h1.19a1.27,1.27,0,0,0,.53,1,2.35,2.35,0,0,0,1.42.37c1.16,0,1.75-.36,1.75-1.08a.86.86,0,0,0-.43-.76,6.52,6.52,0,0,0-1.83-.57,4.4,4.4,0,0,1-1.9-.74A1.63,1.63,0,0,1,78.66,58a1.8,1.8,0,0,1,.73-1.49A3.15,3.15,0,0,1,81.37,56Z"/><path class="cls-1" d="M87.29,53.38v3.83h0a1.77,1.77,0,0,1,.88-.91A3,3,0,0,1,89.6,56c1.66,0,2.5.87,2.5,2.59v4.82H90.91V58.44A1.36,1.36,0,0,0,89.42,57a2,2,0,0,0-1.57.62,2.32,2.32,0,0,0-.56,1.61v4.13H86.1v-10Z"/><path class="cls-1" d="M97.13,56a3.32,3.32,0,0,1,2.57,1,4.45,4.45,0,0,1,0,5.47,3.27,3.27,0,0,1-2.57,1.07,3.32,3.32,0,0,1-2.56-1,3.87,3.87,0,0,1-1-2.75,4,4,0,0,1,1-2.77A3.34,3.34,0,0,1,97.13,56Zm-2.26,3.8a3,3,0,0,0,.63,2,2,2,0,0,0,1.63.76,2,2,0,0,0,1.62-.75,3,3,0,0,0,.63-2,3,3,0,0,0-.63-2,2.09,2.09,0,0,0-3.24,0A3.06,3.06,0,0,0,94.87,59.77Z"/><path class="cls-1" d="M106,56v1.26a2.57,2.57,0,0,0-2,.71,3.26,3.26,0,0,0-.63,2.21v3.23h-1.19V56.14h1.12v1.53h0a2.68,2.68,0,0,1,2.5-1.7Z"/><path class="cls-1" d="M109.07,54v2.17h1.44v1h-1.44v4.54a.7.7,0,0,0,.12.46,1,1,0,0,0,.64.14h.68v1.05h-1a2,2,0,0,1-1.29-.31,1.53,1.53,0,0,1-.36-1.2V57.19h-1.23v-1h1.23V54Z"/><path class="cls-1" d="M117.26,53.38v10h-1.19v-10Z"/><path class="cls-1" d="M122.23,56a2.89,2.89,0,0,1,2.41,1.11,4.55,4.55,0,0,1,.87,2.9v.14h-5.42v.08a2.33,2.33,0,0,0,.6,1.68,2.2,2.2,0,0,0,1.65.62,1.71,1.71,0,0,0,1.88-1.42h1.17a2.86,2.86,0,0,1-1,1.85,3.28,3.28,0,0,1-2,.62,3.09,3.09,0,0,1-2.59-1.12,4.25,4.25,0,0,1-.88-2.72,3.84,3.84,0,0,1,1-2.67A3.17,3.17,0,0,1,122.23,56Zm2,3.1a2.21,2.21,0,0,0-.64-1.47,2,2,0,0,0-1.46-.58,1.94,1.94,0,0,0-1.4.56,2.2,2.2,0,0,0-.66,1.49Z"/><path class="cls-1" d="M129.36,56a3.41,3.41,0,0,1,2.17.57,2.27,2.27,0,0,1,.78,1.7h-1.19a1.19,1.19,0,0,0-.51-.9,2.07,2.07,0,0,0-1.17-.31,2.26,2.26,0,0,0-1.13.24.76.76,0,0,0-.41.69.75.75,0,0,0,.36.65,3.55,3.55,0,0,0,1.11.41l1.12.25a3.78,3.78,0,0,1,1.6.71,1.63,1.63,0,0,1,.54,1.3,2,2,0,0,1-.82,1.68,3.79,3.79,0,0,1-2.26.6,3.59,3.59,0,0,1-2.2-.61,2.28,2.28,0,0,1-.86-1.84h1.19a1.22,1.22,0,0,0,.53,1,2.32,2.32,0,0,0,1.41.37c1.17,0,1.75-.36,1.75-1.08a.87.87,0,0,0-.42-.76,6.77,6.77,0,0,0-1.83-.57,4.45,4.45,0,0,1-1.91-.74,1.63,1.63,0,0,1-.57-1.32,1.81,1.81,0,0,1,.74-1.49A3.15,3.15,0,0,1,129.36,56Z"/><path class="cls-1" d="M136.57,56a3.41,3.41,0,0,1,2.17.57,2.27,2.27,0,0,1,.78,1.7h-1.19a1.19,1.19,0,0,0-.51-.9,2.07,2.07,0,0,0-1.17-.31,2.26,2.26,0,0,0-1.13.24.76.76,0,0,0-.41.69.75.75,0,0,0,.36.65,3.55,3.55,0,0,0,1.11.41l1.12.25a3.78,3.78,0,0,1,1.6.71,1.63,1.63,0,0,1,.54,1.3A2,2,0,0,1,139,63a3.79,3.79,0,0,1-2.26.6,3.59,3.59,0,0,1-2.2-.61,2.28,2.28,0,0,1-.86-1.84h1.19a1.22,1.22,0,0,0,.53,1,2.32,2.32,0,0,0,1.41.37c1.17,0,1.75-.36,1.75-1.08a.87.87,0,0,0-.42-.76,6.77,6.77,0,0,0-1.83-.57,4.45,4.45,0,0,1-1.91-.74,1.63,1.63,0,0,1-.57-1.32,1.81,1.81,0,0,1,.74-1.49A3.15,3.15,0,0,1,136.57,56Z"/><path class="cls-1" d="M144.4,56A3.3,3.3,0,0,1,147,57a4.41,4.41,0,0,1,0,5.47,3.26,3.26,0,0,1-2.57,1.07,3.31,3.31,0,0,1-2.55-1,3.87,3.87,0,0,1-1-2.75,3.94,3.94,0,0,1,.94-2.77A3.34,3.34,0,0,1,144.4,56Zm-2.25,3.8a3,3,0,0,0,.63,2,2,2,0,0,0,1.62.76,2,2,0,0,0,1.62-.75,3,3,0,0,0,.64-2,3,3,0,0,0-.63-2,2,2,0,0,0-1.64-.77,2,2,0,0,0-1.6.77A3,3,0,0,0,142.15,59.77Z"/><path class="cls-1" d="M152.94,56c1.66,0,2.49.87,2.49,2.59v4.82h-1.19V58.44a1.4,1.4,0,0,0-.38-1,1.43,1.43,0,0,0-1.1-.41,2,2,0,0,0-1.58.62,2.31,2.31,0,0,0-.55,1.61v4.13h-1.19V56.14h1.12v1.15h0A2.55,2.55,0,0,1,152.94,56Z"/><path class="cls-1" d="M159.76,56a3.44,3.44,0,0,1,2.18.57,2.27,2.27,0,0,1,.78,1.7h-1.19a1.19,1.19,0,0,0-.51-.9,2.12,2.12,0,0,0-1.17-.31,2.23,2.23,0,0,0-1.13.24.78.78,0,0,0-.05,1.34,3.36,3.36,0,0,0,1.11.41l1.12.25a3.68,3.68,0,0,1,1.59.71,1.61,1.61,0,0,1,.55,1.3,2,2,0,0,1-.83,1.68,3.75,3.75,0,0,1-2.25.6,3.55,3.55,0,0,1-2.2-.61,2.31,2.31,0,0,1-.87-1.84h1.19a1.27,1.27,0,0,0,.53,1,2.35,2.35,0,0,0,1.42.37c1.17,0,1.75-.36,1.75-1.08a.86.86,0,0,0-.43-.76,6.52,6.52,0,0,0-1.83-.57,4.4,4.4,0,0,1-1.9-.74,1.63,1.63,0,0,1-.57-1.32,1.8,1.8,0,0,1,.73-1.49A3.15,3.15,0,0,1,159.76,56Z"/><path class="cls-1" d="M171,53.27a2.69,2.69,0,0,1,.79.11v1a1.78,1.78,0,0,0-.67-.1c-.61,0-.91.26-.91.79v1h1.4v1h-1.4v6.19H169V57.19H167.8v-1H169V55a1.67,1.67,0,0,1,.49-1.27A2.11,2.11,0,0,1,171,53.27Z"/><path class="cls-1" d="M175.75,56a3.3,3.3,0,0,1,2.57,1,4.41,4.41,0,0,1,0,5.47,3.26,3.26,0,0,1-2.57,1.07,3.31,3.31,0,0,1-2.55-1,3.87,3.87,0,0,1-1-2.75,4,4,0,0,1,.95-2.77A3.32,3.32,0,0,1,175.75,56Zm-2.25,3.8a3,3,0,0,0,.63,2,2,2,0,0,0,1.62.76,2,2,0,0,0,1.62-.75,2.93,2.93,0,0,0,.64-2,3,3,0,0,0-.63-2,2,2,0,0,0-1.64-.77,2,2,0,0,0-1.6.77A3,3,0,0,0,173.5,59.77Z"/><path class="cls-1" d="M184.58,56v1.26a2.54,2.54,0,0,0-2,.71,3.26,3.26,0,0,0-.64,2.21v3.23h-1.19V56.14h1.12v1.53h0a2.66,2.66,0,0,1,2.49-1.7Z"/><path class="cls-1" d="M79.52,72.14l2.12,5.92h0l2-5.92H85l-3.08,8a4.82,4.82,0,0,1-.95,1.72,1.76,1.76,0,0,1-1.22.41,2.3,2.3,0,0,1-.83-.13V81.06a2.86,2.86,0,0,0,.7.17,1,1,0,0,0,1-.73l.46-1.16-2.87-7.2Z"/><path class="cls-1" d="M89,72a3.32,3.32,0,0,1,2.57,1,4.45,4.45,0,0,1,0,5.47A3.27,3.27,0,0,1,89,79.55a3.32,3.32,0,0,1-2.56-1,3.87,3.87,0,0,1-1-2.75A4,4,0,0,1,86.38,73,3.34,3.34,0,0,1,89,72Zm-2.26,3.8a3,3,0,0,0,.63,2,2.12,2.12,0,0,0,3.24,0,2.93,2.93,0,0,0,.64-2,3,3,0,0,0-.63-2,2.09,2.09,0,0,0-3.24,0A3.06,3.06,0,0,0,86.69,75.77Z"/><path class="cls-1" d="M95.15,72.14v4.93a1.39,1.39,0,0,0,.4,1,1.42,1.42,0,0,0,1.07.4,2,2,0,0,0,1.6-.62,2.36,2.36,0,0,0,.55-1.61V72.14H100v7.24H98.84V78.23h0a2.51,2.51,0,0,1-2.35,1.32c-1.67,0-2.5-.86-2.5-2.58V72.14Z"/><path class="cls-1" d="M105.64,72v1.26a2.53,2.53,0,0,0-2,.71,3.21,3.21,0,0,0-.64,2.21v3.23h-1.19V72.14H103v1.53h0a2.66,2.66,0,0,1,2.49-1.7Z"/><path class="cls-1" d="M113.73,72a3.42,3.42,0,0,1,2.14.63,2.61,2.61,0,0,1,1,1.87h-1.23A1.66,1.66,0,0,0,113.83,73a2,2,0,0,0-1.68.74,3.29,3.29,0,0,0-.58,2.09,3.06,3.06,0,0,0,.56,1.92,1.85,1.85,0,0,0,1.56.73,2,2,0,0,0,1.37-.46,2.1,2.1,0,0,0,.61-1.31h1.22a3.32,3.32,0,0,1-1,2.09,3.14,3.14,0,0,1-2.18.73,3.2,3.2,0,0,1-2.48-1,3.88,3.88,0,0,1-.91-2.71,4.14,4.14,0,0,1,.92-2.83A3.14,3.14,0,0,1,113.73,72Z"/><path class="cls-1" d="M119.53,69.38v3.83h0a1.79,1.79,0,0,1,.89-.91,3,3,0,0,1,1.4-.33c1.66,0,2.49.87,2.49,2.59v4.82h-1.19V74.44A1.36,1.36,0,0,0,121.65,73a2,2,0,0,0-1.56.62,2.27,2.27,0,0,0-.56,1.61v4.13h-1.19v-10Z"/><path class="cls-1" d="M129.18,72q2.7,0,2.7,2v4.17c0,.27.13.41.38.41a1,1,0,0,0,.37-.07v.92a1.76,1.76,0,0,1-.86.2c-.67,0-1-.37-1-1.12a3.15,3.15,0,0,1-2.54,1.12,2.68,2.68,0,0,1-1.76-.53,1.85,1.85,0,0,1-.64-1.5,2,2,0,0,1,.63-1.54,6.08,6.08,0,0,1,2.93-.87,2.5,2.5,0,0,0,1.06-.3.7.7,0,0,0,.27-.6c0-.79-.54-1.19-1.61-1.19a2.17,2.17,0,0,0-1.32.33,1.32,1.32,0,0,0-.49,1.05H126.1C126.2,72.78,127.22,72,129.18,72Zm-2.1,5.46a.93.93,0,0,0,.37.79,1.68,1.68,0,0,0,1,.28,2.51,2.51,0,0,0,1.59-.48,1.36,1.36,0,0,0,.62-1.13V75.64a1.89,1.89,0,0,1-.84.3l-1.21.18a2.28,2.28,0,0,0-1.18.43A1.09,1.09,0,0,0,127.08,77.43Z"/><path class="cls-1" d="M137.4,72c1.66,0,2.49.87,2.49,2.59v4.82H138.7V74.44A1.36,1.36,0,0,0,137.22,73a2,2,0,0,0-1.58.62,2.31,2.31,0,0,0-.55,1.61v4.13H133.9V72.14H135v1.15h0A2.55,2.55,0,0,1,137.4,72Z"/><path class="cls-1" d="M144.82,72a3.45,3.45,0,0,1,2.15.63,2.64,2.64,0,0,1,1,1.87h-1.24A1.66,1.66,0,0,0,144.92,73a2,2,0,0,0-1.68.74,3.35,3.35,0,0,0-.57,2.09,3.06,3.06,0,0,0,.56,1.92,1.83,1.83,0,0,0,1.55.73,2,2,0,0,0,1.37-.46,2.05,2.05,0,0,0,.62-1.31H148a3.28,3.28,0,0,1-1,2.09,3.11,3.11,0,0,1-2.17.73,3.2,3.2,0,0,1-2.48-1,3.83,3.83,0,0,1-.91-2.71,4.09,4.09,0,0,1,.92-2.83A3.13,3.13,0,0,1,144.82,72Z"/><path class="cls-1" d="M152.46,72a2.89,2.89,0,0,1,2.41,1.11,4.55,4.55,0,0,1,.86,2.9v.14h-5.41v.08a2.33,2.33,0,0,0,.6,1.68,2.2,2.2,0,0,0,1.65.62,1.71,1.71,0,0,0,1.88-1.42h1.17a3,3,0,0,1-1.05,1.85,3.28,3.28,0,0,1-2,.62,3.09,3.09,0,0,1-2.59-1.12,4.25,4.25,0,0,1-.88-2.72A3.84,3.84,0,0,1,150,73,3.17,3.17,0,0,1,152.46,72Zm2,3.1a2.16,2.16,0,0,0-.63-1.47,2,2,0,0,0-1.47-.58,2,2,0,0,0-1.4.56,2.24,2.24,0,0,0-.65,1.49Z"/><path class="cls-1" d="M162.79,70v2.17h1.44v1h-1.44v4.54a.65.65,0,0,0,.13.46c.08.09.29.14.63.14h.68v1h-1a2,2,0,0,1-1.29-.31,1.53,1.53,0,0,1-.36-1.2V73.19h-1.23v-1h1.23V70Z"/><path class="cls-1" d="M168.53,72a3.29,3.29,0,0,1,2.56,1,4.41,4.41,0,0,1,0,5.47,3.25,3.25,0,0,1-2.56,1.07,3.32,3.32,0,0,1-2.56-1,3.87,3.87,0,0,1-1-2.75A4,4,0,0,1,166,73,3.33,3.33,0,0,1,168.53,72Zm-2.26,3.8a3,3,0,0,0,.63,2,2.12,2.12,0,0,0,3.24,0,2.93,2.93,0,0,0,.64-2,3,3,0,0,0-.63-2,2,2,0,0,0-1.64-.77,2,2,0,0,0-1.6.77A3,3,0,0,0,166.27,75.77Z"/><path class="cls-1" d="M79.62,88.14l1.64,5.92h0l1.45-5.92h1.31l1.52,5.92h0l1.62-5.92h1.23l-2.29,7.23H84.87l-1.48-5.75h0l-1.45,5.75H80.63l-2.32-7.24Z"/><path class="cls-1" d="M90.87,85.38v1.46H89.68V85.38Zm0,2.76v7.24H89.68V88.14Z"/><path class="cls-1" d="M96.29,88c1.66,0,2.49.87,2.49,2.59v4.82H97.59V90.44a1.4,1.4,0,0,0-.38-1,1.43,1.43,0,0,0-1.1-.41,2,2,0,0,0-1.58.62A2.36,2.36,0,0,0,94,91.25v4.13H92.79V88.14h1.12v1.15h0A2.56,2.56,0,0,1,96.29,88Z"/><path class="cls-1" d="M105.94,88.14v4.93a1.36,1.36,0,0,0,1.47,1.43,2,2,0,0,0,1.59-.62,2.31,2.31,0,0,0,.55-1.61V88.14h1.19v7.24h-1.12V94.23h0a2.5,2.5,0,0,1-2.35,1.32q-2.49,0-2.49-2.58V88.14Z"/><path class="cls-1" d="M116.18,88a3,3,0,0,1,2.44,1,4.1,4.1,0,0,1,.89,2.76,4,4,0,0,1-.9,2.73,3,3,0,0,1-2.4,1,3.23,3.23,0,0,1-1.32-.28,2.14,2.14,0,0,1-1-.86h0v3.74h-1.19v-10h1.19v1h0A2.33,2.33,0,0,1,116.18,88Zm-2.38,3.78a3.13,3.13,0,0,0,.6,2,2,2,0,0,0,1.68.74,1.93,1.93,0,0,0,1.61-.74,3.34,3.34,0,0,0,.56-2.06,2.9,2.9,0,0,0-.61-1.93A2,2,0,0,0,116,89a2,2,0,0,0-1.6.73A3.06,3.06,0,0,0,113.8,91.75Z"/><path class="cls-1" d="M126.74,86v2.17h1.44v1h-1.44v4.54a.7.7,0,0,0,.12.46,1,1,0,0,0,.63.14h.69v1h-1a2,2,0,0,1-1.29-.31,1.53,1.53,0,0,1-.36-1.2V89.19h-1.24v-1h1.24V86Z"/><path class="cls-1" d="M132.47,88A3.3,3.3,0,0,1,135,89a4.41,4.41,0,0,1,0,5.47,3.26,3.26,0,0,1-2.57,1.07,3.31,3.31,0,0,1-2.55-1,3.87,3.87,0,0,1-1-2.75A3.94,3.94,0,0,1,129.9,89,3.34,3.34,0,0,1,132.47,88Zm-2.25,3.8a3,3,0,0,0,.63,2,2,2,0,0,0,1.62.76,2,2,0,0,0,1.62-.75,3,3,0,0,0,.64-2,3,3,0,0,0-.63-2,2,2,0,0,0-1.64-.77,2,2,0,0,0-1.6.77A3,3,0,0,0,130.22,91.77Z"/><path class="cls-2" d="M144.13,84.07H145v1.08a3.83,3.83,0,0,1,2.26.91,2.92,2.92,0,0,1,.89,2.07h-2a1.55,1.55,0,0,0-.36-1,1.05,1.05,0,0,0-.8-.38v2.48a5.79,5.79,0,0,1,2.68,1.16,2.81,2.81,0,0,1,.82,2.19A2.67,2.67,0,0,1,148,94a3.18,3.18,0,0,1-1.22,1.13,4.33,4.33,0,0,1-1.86.49v1.19h-.83V95.62a3.73,3.73,0,0,1-2.42-1,3.81,3.81,0,0,1-1.06-2.52h2v0a1.75,1.75,0,0,0,.4,1.19,1.87,1.87,0,0,0,1.09.62V91.05c-.65-.17-1.08-.3-1.28-.37a6.25,6.25,0,0,1-.8-.39,2.29,2.29,0,0,1-.83-.81,2.54,2.54,0,0,1-.33-1.34,2.7,2.7,0,0,1,.87-2.06,3.72,3.72,0,0,1,2.37-.93ZM142.87,88a.84.84,0,0,0,.31.7,2.28,2.28,0,0,0,.95.42V86.78a1.27,1.27,0,0,0-.89.33A1.07,1.07,0,0,0,142.87,88ZM145,94a1.89,1.89,0,0,0,1.08-.44,1.17,1.17,0,0,0,.43-.93,1,1,0,0,0-.33-.81,3.07,3.07,0,0,0-1.18-.51Z"/><path class="cls-2" d="M152.89,85.38a3.44,3.44,0,0,1,2.4.87,2.81,2.81,0,0,1,1,2.2,3.39,3.39,0,0,1-.19,1.13,3.14,3.14,0,0,1-.62,1,7.56,7.56,0,0,1-1.53,1.22,8,8,0,0,0-2.24,1.86h4.63v1.71h-7.19a4,4,0,0,1,.6-2.2,8.16,8.16,0,0,1,2.28-2,13.51,13.51,0,0,0,1.68-1.23,2.2,2.2,0,0,0,.47-.66,1.78,1.78,0,0,0,.12-.65,1.55,1.55,0,0,0-.39-1.09,1.43,1.43,0,0,0-1.08-.42,1.27,1.27,0,0,0-1.14.6,3.06,3.06,0,0,0-.42,1.66h-1.9v-.19a3.85,3.85,0,0,1,1-2.75A3.39,3.39,0,0,1,152.89,85.38Z"/><path class="cls-2" d="M160.92,85.38a3.1,3.1,0,0,1,2.68,1.28,6.39,6.39,0,0,1,.93,3.78,6.63,6.63,0,0,1-.92,3.84,3.1,3.1,0,0,1-2.69,1.3c-2.39,0-3.59-1.72-3.59-5.14a6.54,6.54,0,0,1,.9-3.77A3.08,3.08,0,0,1,160.92,85.38Zm-1.6,5a6.57,6.57,0,0,0,.41,2.77,1.29,1.29,0,0,0,1.19.79,1.14,1.14,0,0,0,1-.42,2.74,2.74,0,0,0,.51-1.1,9.35,9.35,0,0,0,.16-2,5.65,5.65,0,0,0-.43-2.59A1.33,1.33,0,0,0,160.9,87a1.26,1.26,0,0,0-1.17.79A5.8,5.8,0,0,0,159.32,90.38Z"/><path class="cls-2" d="M168,93.22v2.19a2.12,2.12,0,0,1-.59,1.5,2.58,2.58,0,0,1-1.59.79v-1a1.21,1.21,0,0,0,.72-.46,1.24,1.24,0,0,0,.27-.76v-.1h-1V93.22Z"/><path class="cls-2" d="M172.92,85.38a3.11,3.11,0,0,1,2.69,1.28,6.39,6.39,0,0,1,.93,3.78,6.63,6.63,0,0,1-.92,3.84,3.11,3.11,0,0,1-2.7,1.3c-2.38,0-3.58-1.72-3.58-5.14a6.54,6.54,0,0,1,.9-3.77A3.07,3.07,0,0,1,172.92,85.38Zm-1.59,5a6.57,6.57,0,0,0,.41,2.77,1.29,1.29,0,0,0,1.18.79,1.17,1.17,0,0,0,1-.42,2.74,2.74,0,0,0,.51-1.1,10,10,0,0,0,.16-2,5.65,5.65,0,0,0-.43-2.59,1.33,1.33,0,0,0-1.21-.77,1.28,1.28,0,0,0-1.18.79A6,6,0,0,0,171.33,90.38Z"/><path class="cls-2" d="M181.28,85.38A3.13,3.13,0,0,1,184,86.66a6.46,6.46,0,0,1,.92,3.78,6.63,6.63,0,0,1-.92,3.84,3.1,3.1,0,0,1-2.69,1.3c-2.39,0-3.59-1.72-3.59-5.14a6.53,6.53,0,0,1,.91-3.77A3.05,3.05,0,0,1,181.28,85.38Zm-1.6,5a6.38,6.38,0,0,0,.42,2.77,1.28,1.28,0,0,0,1.18.79,1.17,1.17,0,0,0,1-.42,2.73,2.73,0,0,0,.5-1.1,9.35,9.35,0,0,0,.16-2,5.81,5.81,0,0,0-.42-2.59,1.34,1.34,0,0,0-1.22-.77,1.26,1.26,0,0,0-1.17.79A6,6,0,0,0,179.68,90.38Z"/><path class="cls-2" d="M189.63,85.38a3.12,3.12,0,0,1,2.69,1.28,6.39,6.39,0,0,1,.92,3.78,6.64,6.64,0,0,1-.91,3.84,3.11,3.11,0,0,1-2.7,1.3c-2.39,0-3.58-1.72-3.58-5.14a6.54,6.54,0,0,1,.9-3.77A3.06,3.06,0,0,1,189.63,85.38Zm-1.59,5a6.41,6.41,0,0,0,.41,2.77,1.28,1.28,0,0,0,1.18.79,1.17,1.17,0,0,0,1-.42,2.74,2.74,0,0,0,.51-1.1,10,10,0,0,0,.16-2,5.79,5.79,0,0,0-.43-2.59,1.34,1.34,0,0,0-1.21-.77,1.27,1.27,0,0,0-1.18.79A6,6,0,0,0,188,90.38Z"/><path class="cls-1" d="M80.22,101.38v1.46H79v-1.46Zm0,2.76v7.24H79v-7.24Z"/><path class="cls-1" d="M85.65,104c1.66,0,2.49.87,2.49,2.59v4.82H87v-4.94A1.36,1.36,0,0,0,85.46,105a2,2,0,0,0-1.57.62,2.31,2.31,0,0,0-.55,1.61v4.13H82.15v-7.24h1.12v1.15h0A2.58,2.58,0,0,1,85.65,104Z"/><path class="cls-1" d="M96.51,104a3.44,3.44,0,0,1,2.18.57,2.23,2.23,0,0,1,.77,1.7H98.27a1.14,1.14,0,0,0-.51-.9A2.06,2.06,0,0,0,96.6,105a2.23,2.23,0,0,0-1.13.24.78.78,0,0,0,0,1.34,3.38,3.38,0,0,0,1.1.41l1.13.25a3.68,3.68,0,0,1,1.59.71,1.64,1.64,0,0,1,.55,1.3A2,2,0,0,1,99,111a3.75,3.75,0,0,1-2.25.6,3.55,3.55,0,0,1-2.2-.61,2.31,2.31,0,0,1-.87-1.84h1.19a1.27,1.27,0,0,0,.53,1,2.35,2.35,0,0,0,1.42.37c1.16,0,1.75-.36,1.75-1.08a.88.88,0,0,0-.43-.76,6.52,6.52,0,0,0-1.83-.57,4.4,4.4,0,0,1-1.9-.74,1.64,1.64,0,0,1-.58-1.32,1.81,1.81,0,0,1,.74-1.49A3.15,3.15,0,0,1,96.51,104Z"/><path class="cls-1" d="M104.27,104a3.44,3.44,0,0,1,2.14.63,2.61,2.61,0,0,1,1,1.87h-1.23a1.67,1.67,0,0,0-1.79-1.45,2,2,0,0,0-1.68.74,3.29,3.29,0,0,0-.58,2.09,3.06,3.06,0,0,0,.56,1.92,1.84,1.84,0,0,0,1.56.73,2,2,0,0,0,1.37-.46,2.1,2.1,0,0,0,.61-1.31h1.22a3.32,3.32,0,0,1-1,2.09,3.16,3.16,0,0,1-2.18.73,3.2,3.2,0,0,1-2.48-1,3.83,3.83,0,0,1-.91-2.71,4.14,4.14,0,0,1,.92-2.83A3.14,3.14,0,0,1,104.27,104Z"/><path class="cls-1" d="M110.06,101.38v3.83h0a1.77,1.77,0,0,1,.88-.91,3,3,0,0,1,1.4-.33c1.67,0,2.5.87,2.5,2.59v4.82h-1.19v-4.94a1.36,1.36,0,0,0-1.49-1.42,2,2,0,0,0-1.57.62,2.32,2.32,0,0,0-.56,1.61v4.13h-1.19v-10Z"/><path class="cls-1" d="M119.9,104a3.32,3.32,0,0,1,2.57,1,4.45,4.45,0,0,1,0,5.47,3.27,3.27,0,0,1-2.57,1.07,3.33,3.33,0,0,1-2.56-1,4.5,4.5,0,0,1,0-5.52A3.34,3.34,0,0,1,119.9,104Zm-2.25,3.8a3,3,0,0,0,.63,2,2,2,0,0,0,1.62.76,2,2,0,0,0,1.62-.75,3,3,0,0,0,.63-2,3,3,0,0,0-.63-2,2.09,2.09,0,0,0-3.24,0A3.05,3.05,0,0,0,117.65,107.77Z"/><path class="cls-1" d="M126.16,101.38v10H125v-10Z"/><path class="cls-1" d="M131.09,104q2.7,0,2.7,2v4.17c0,.27.12.41.38.41a.92.92,0,0,0,.36-.07v.92a1.72,1.72,0,0,1-.85.2c-.68,0-1-.37-1-1.12a3.18,3.18,0,0,1-2.55,1.12,2.7,2.7,0,0,1-1.76-.53,1.84,1.84,0,0,1-.63-1.5,2,2,0,0,1,.63-1.54,6,6,0,0,1,2.92-.87,2.4,2.4,0,0,0,1.06-.3.7.7,0,0,0,.27-.6c0-.79-.53-1.19-1.61-1.19a2.17,2.17,0,0,0-1.32.33,1.32,1.32,0,0,0-.48,1.05H128C128.1,104.78,129.13,104,131.09,104Zm-2.1,5.46a1,1,0,0,0,.36.79,1.72,1.72,0,0,0,1,.28A2.55,2.55,0,0,0,132,110a1.39,1.39,0,0,0,.62-1.13v-1.25a2,2,0,0,1-.84.3l-1.22.18a2.36,2.36,0,0,0-1.18.43A1.08,1.08,0,0,0,129,109.43Z"/><path class="cls-1" d="M139.59,104v1.26a2.53,2.53,0,0,0-2,.71,3.21,3.21,0,0,0-.64,2.21v3.23h-1.19v-7.24h1.12v1.53h0a2.66,2.66,0,0,1,2.49-1.7Z"/><path class="cls-1" d="M143.2,104a3.46,3.46,0,0,1,2.18.57,2.23,2.23,0,0,1,.77,1.7H145a1.14,1.14,0,0,0-.51-.9,2.07,2.07,0,0,0-1.17-.31,2.22,2.22,0,0,0-1.12.24.76.76,0,0,0-.42.69.74.74,0,0,0,.37.65,3.38,3.38,0,0,0,1.1.41l1.12.25a3.78,3.78,0,0,1,1.6.71,1.64,1.64,0,0,1,.55,1.3,2,2,0,0,1-.83,1.68,3.75,3.75,0,0,1-2.25.6,3.55,3.55,0,0,1-2.2-.61,2.31,2.31,0,0,1-.87-1.84h1.19a1.25,1.25,0,0,0,.53,1,2.34,2.34,0,0,0,1.41.37c1.17,0,1.75-.36,1.75-1.08a.87.87,0,0,0-.42-.76,6.77,6.77,0,0,0-1.83-.57,4.35,4.35,0,0,1-1.9-.74,1.61,1.61,0,0,1-.58-1.32,1.81,1.81,0,0,1,.74-1.49A3.15,3.15,0,0,1,143.2,104Z"/><path class="cls-1" d="M149.12,101.38v3.83h0a1.77,1.77,0,0,1,.88-.91,3,3,0,0,1,1.4-.33c1.66,0,2.49.87,2.49,2.59v4.82h-1.19v-4.94a1.4,1.4,0,0,0-.38-1,1.43,1.43,0,0,0-1.1-.41,2,2,0,0,0-1.57.62,2.32,2.32,0,0,0-.56,1.61v4.13h-1.19v-10Z"/><path class="cls-1" d="M157,101.38v1.46h-1.19v-1.46Zm0,2.76v7.24h-1.19v-7.24Z"/><path class="cls-1" d="M162.51,104a3,3,0,0,1,2.44,1,4.1,4.1,0,0,1,.89,2.76,4,4,0,0,1-.9,2.73,3,3,0,0,1-2.4,1,3.23,3.23,0,0,1-1.32-.28,2.14,2.14,0,0,1-1-.86h0v3.74H159v-10h1.19v1h0A2.33,2.33,0,0,1,162.51,104Zm-2.38,3.78a3.13,3.13,0,0,0,.6,2,2,2,0,0,0,1.68.74,1.93,1.93,0,0,0,1.61-.74,3.34,3.34,0,0,0,.56-2.06,2.9,2.9,0,0,0-.61-1.93,2,2,0,0,0-1.64-.75,2,2,0,0,0-1.6.73A3.06,3.06,0,0,0,160.13,107.75Z"/><path class="cls-1" d="M169.78,104a3.44,3.44,0,0,1,2.18.57,2.27,2.27,0,0,1,.78,1.7h-1.19a1.19,1.19,0,0,0-.51-.9,2.12,2.12,0,0,0-1.17-.31,2.23,2.23,0,0,0-1.13.24.78.78,0,0,0-.05,1.34,3.36,3.36,0,0,0,1.11.41l1.12.25a3.68,3.68,0,0,1,1.59.71,1.61,1.61,0,0,1,.55,1.3,2,2,0,0,1-.83,1.68,3.75,3.75,0,0,1-2.25.6,3.55,3.55,0,0,1-2.2-.61,2.31,2.31,0,0,1-.87-1.84h1.19a1.27,1.27,0,0,0,.53,1,2.35,2.35,0,0,0,1.42.37c1.17,0,1.75-.36,1.75-1.08a.86.86,0,0,0-.43-.76,6.52,6.52,0,0,0-1.83-.57,4.4,4.4,0,0,1-1.9-.74,1.63,1.63,0,0,1-.57-1.32,1.8,1.8,0,0,1,.73-1.49A3.15,3.15,0,0,1,169.78,104Z"/><path class="cls-1" d="M176.28,109.83v1.55h-1.56v-1.55Z"/><rect class="cls-3" x="78.07" y="125.54" width="116.66" height="25.08" rx="3.24"/><path class="cls-4" d="M118.66,133.34a3.84,3.84,0,0,1,2.4.69,2.35,2.35,0,0,1,.89,2H120.2a1.21,1.21,0,0,0-.42-.93,1.86,1.86,0,0,0-1.19-.31,1.56,1.56,0,0,0-.91.24.82.82,0,0,0-.35.69.62.62,0,0,0,.21.52,2.32,2.32,0,0,0,.61.29l1.37.37a6.6,6.6,0,0,1,1.58.55,2.1,2.1,0,0,1,.84.77,2.14,2.14,0,0,1,.29,1.14,2.43,2.43,0,0,1-.42,1.4,2.55,2.55,0,0,1-1.21.92,4.8,4.8,0,0,1-1.79.32,3.92,3.92,0,0,1-2.52-.77,2.51,2.51,0,0,1-1-2.1V139h1.76a1.37,1.37,0,0,0,.49,1.13,2.07,2.07,0,0,0,1.31.4,2.3,2.3,0,0,0,1.17-.26.84.84,0,0,0,.45-.77.74.74,0,0,0-.24-.56,1.86,1.86,0,0,0-.65-.38,11.34,11.34,0,0,0-1.36-.36,6,6,0,0,1-1.61-.59,2.22,2.22,0,0,1-.77-.75,2,2,0,0,1-.27-1.07,2.16,2.16,0,0,1,.44-1.35,2.68,2.68,0,0,1,1.16-.85A4,4,0,0,1,118.66,133.34Z"/><path class="cls-4" d="M125.12,133.54v1.35h-1.63v-1.35Zm0,2.27v6h-1.63v-6Z"/><path class="cls-4" d="M129,135.65a1.88,1.88,0,0,1,1.77.95h0v-.79h1.55v5.59a2.39,2.39,0,0,1-.8,1.95,3.42,3.42,0,0,1-2.27.67,3.07,3.07,0,0,1-1.87-.54,1.79,1.79,0,0,1-.77-1.37h1.62c.13.55.54.82,1.22.82a1.26,1.26,0,0,0,1-.38,1.53,1.53,0,0,0,.34-1.06v-.82h0a1.61,1.61,0,0,1-.71.68,2.59,2.59,0,0,1-2.94-.54,3.28,3.28,0,0,1-.68-2.21,3.17,3.17,0,0,1,.71-2.11A2.3,2.3,0,0,1,129,135.65Zm-.92,2.92a2.16,2.16,0,0,0,.35,1.32,1.15,1.15,0,0,0,1,.47,1.25,1.25,0,0,0,1-.46,1.82,1.82,0,0,0,.38-1.2,2.12,2.12,0,0,0-.37-1.36,1.24,1.24,0,0,0-1-.46,1.11,1.11,0,0,0-1,.48A2,2,0,0,0,128.06,138.57Z"/><path class="cls-4" d="M137.29,135.65a2.15,2.15,0,0,1,1.66.57,2.74,2.74,0,0,1,.51,1.83v3.72h-1.64v-3.38a2.12,2.12,0,0,0-.23-1.1.93.93,0,0,0-.82-.35,1.11,1.11,0,0,0-1,.4,2.27,2.27,0,0,0-.3,1.33v3.1h-1.64v-6h1.56v.83h0A2,2,0,0,1,137.29,135.65Z"/><path class="cls-4" d="M145.77,135.81v3.37a2.29,2.29,0,0,0,.22,1.08.88.88,0,0,0,.83.38,1.15,1.15,0,0,0,1-.41,2.28,2.28,0,0,0,.29-1.29v-3.13h1.64v6h-1.56v-.84h0a2,2,0,0,1-1.84,1,2,2,0,0,1-1.66-.6,2.73,2.73,0,0,1-.5-1.82v-3.7Z"/><path class="cls-4" d="M154.59,135.65a2.44,2.44,0,0,1,2,.86,3.51,3.51,0,0,1,.74,2.34,3.37,3.37,0,0,1-.71,2.21,2.35,2.35,0,0,1-1.91.87,2,2,0,0,1-1.79-.9h0v2.83h-1.64v-8.05h1.56v.76h0A2,2,0,0,1,154.59,135.65Zm-1.78,3.15a2.36,2.36,0,0,0,.37,1.39,1.25,1.25,0,0,0,1.06.5,1.23,1.23,0,0,0,1.07-.5,2.44,2.44,0,0,0,.35-1.39,2.34,2.34,0,0,0-.38-1.41,1.26,1.26,0,0,0-1.06-.51,1.2,1.2,0,0,0-1,.51A2.32,2.32,0,0,0,152.81,138.8Z"/><polygon class="cls-5" points="29.19 0 0 0 0 79.26 29.19 60.38 58.38 79.26 58.38 0 29.19 0"/><polygon class="cls-6" points="0 79.26 0 138.56 29.19 119.68 58.38 138.56 58.38 79.26 29.19 60.38 0 79.26"/><rect class="cls-7" y="168.92" width="58.38" height="1.08"/><polygon class="cls-8" points="0 138.56 0 168.92 58.38 168.92 58.38 138.56 29.19 119.68 0 138.56"/><path class="cls-2" d="M15,138.27h.63v.83a2.94,2.94,0,0,1,1.75.71,2.25,2.25,0,0,1,.68,1.58H16.48a1.22,1.22,0,0,0-.28-.74.81.81,0,0,0-.62-.29v1.91a4.45,4.45,0,0,1,2.07.89,2.3,2.3,0,0,1,.31,2.76,2.45,2.45,0,0,1-.94.86,3.26,3.26,0,0,1-1.44.38v.92H15v-.92a2.89,2.89,0,0,1-1.87-.74,3,3,0,0,1-.82-1.94h1.53v0a1.37,1.37,0,0,0,.32.92,1.46,1.46,0,0,0,.84.47v-2.25l-1-.29a4.75,4.75,0,0,1-.62-.3,1.73,1.73,0,0,1-.63-.63,1.82,1.82,0,0,1-.26-1,2.08,2.08,0,0,1,.67-1.59A2.87,2.87,0,0,1,15,139.1Zm-1,3a.7.7,0,0,0,.23.55,1.77,1.77,0,0,0,.74.32v-1.76a1,1,0,0,0-.69.25A.8.8,0,0,0,14,141.25Zm1.6,4.65a1.52,1.52,0,0,0,.84-.34.91.91,0,0,0,.33-.72.79.79,0,0,0-.25-.62,2.45,2.45,0,0,0-.92-.39Z"/><path class="cls-2" d="M24.14,139.43v1.26H21l-.3,1.72,0,0a2,2,0,0,1,1.48-.58,2.13,2.13,0,0,1,1.68.71,2.64,2.64,0,0,1,.65,1.85,2.61,2.61,0,0,1-.82,1.93,2.72,2.72,0,0,1-1.95.79,3,3,0,0,1-2-.66,2.24,2.24,0,0,1-.8-1.73h1.53a1.24,1.24,0,0,0,.4.82,1.16,1.16,0,0,0,.84.31,1.18,1.18,0,0,0,.94-.43,1.55,1.55,0,0,0,.37-1,1.51,1.51,0,0,0-.35-1,1.26,1.26,0,0,0-1-.4,1.33,1.33,0,0,0-.67.15,1.42,1.42,0,0,0-.47.45H19.18l.74-4.17Z"/><path class="cls-2" d="M27.35,145.32V147a1.62,1.62,0,0,1-.46,1.15,2,2,0,0,1-1.22.62V148a.93.93,0,0,0,.55-.35,1,1,0,0,0,.21-.59V147h-.77v-1.66Z"/><path class="cls-2" d="M31.18,139.28a2.42,2.42,0,0,1,2.07,1,5,5,0,0,1,.71,2.91,5.11,5.11,0,0,1-.71,3,2.36,2.36,0,0,1-2.07,1q-2.76,0-2.76-4a5,5,0,0,1,.69-2.9A2.37,2.37,0,0,1,31.18,139.28ZM30,143.13a4.85,4.85,0,0,0,.32,2.13,1,1,0,0,0,.91.61.91.91,0,0,0,.74-.33,2,2,0,0,0,.38-.84,6.82,6.82,0,0,0,.13-1.57,4.35,4.35,0,0,0-.33-2,1,1,0,0,0-.93-.6,1,1,0,0,0-.91.61A4.56,4.56,0,0,0,30,143.13Z"/><path class="cls-2" d="M37.66,139.28a2.4,2.4,0,0,1,2.07,1,4.92,4.92,0,0,1,.72,2.91,5.11,5.11,0,0,1-.71,3,2.37,2.37,0,0,1-2.08,1q-2.74,0-2.75-4a5,5,0,0,1,.69-2.9A2.35,2.35,0,0,1,37.66,139.28Zm-1.22,3.85a5,5,0,0,0,.31,2.13,1,1,0,0,0,.91.61.88.88,0,0,0,.74-.33,1.93,1.93,0,0,0,.39-.84,7.58,7.58,0,0,0,.12-1.57,4.52,4.52,0,0,0-.32-2,1,1,0,0,0-.94-.6,1,1,0,0,0-.9.61A4.56,4.56,0,0,0,36.44,143.13Z"/><path class="cls-2" d="M44.15,139.28a2.4,2.4,0,0,1,2.07,1,4.92,4.92,0,0,1,.71,2.91,5.11,5.11,0,0,1-.7,3,2.38,2.38,0,0,1-2.08,1q-2.76,0-2.76-4a5,5,0,0,1,.7-2.9A2.35,2.35,0,0,1,44.15,139.28Zm-1.23,3.85a5,5,0,0,0,.32,2.13,1,1,0,0,0,.91.61.9.9,0,0,0,.74-.33,1.93,1.93,0,0,0,.39-.84,7.58,7.58,0,0,0,.12-1.57,4.35,4.35,0,0,0-.33-2,1,1,0,0,0-.93-.6,1,1,0,0,0-.9.61A4.53,4.53,0,0,0,42.92,143.13Z"/><path class="cls-4" d="M11.86,25.56h.63v.83a3,3,0,0,1,1.75.7,2.25,2.25,0,0,1,.68,1.59H13.39a1.2,1.2,0,0,0-.28-.74.78.78,0,0,0-.62-.29v1.9a4.56,4.56,0,0,1,2.07.89,2.19,2.19,0,0,1,.63,1.69,2.07,2.07,0,0,1-.32,1.07,2.4,2.4,0,0,1-.94.87,3.4,3.4,0,0,1-1.44.38v.91h-.63v-.91A2.84,2.84,0,0,1,10,33.7a3,3,0,0,1-.82-1.94h1.54v0a1.34,1.34,0,0,0,.31.91,1.48,1.48,0,0,0,.84.48V30.93c-.5-.13-.84-.23-1-.29a3.55,3.55,0,0,1-.62-.29,1.73,1.73,0,0,1-.63-.63,1.86,1.86,0,0,1-.26-1A2.08,2.08,0,0,1,10,27.1a2.86,2.86,0,0,1,1.83-.71Zm-1,3a.72.72,0,0,0,.23.55,1.78,1.78,0,0,0,.74.31V27.65a1,1,0,0,0-.69.24A.83.83,0,0,0,10.89,28.54Zm1.6,4.65a1.52,1.52,0,0,0,.84-.34.91.91,0,0,0,.33-.72.79.79,0,0,0-.25-.62,2.3,2.3,0,0,0-.92-.39Z"/><path class="cls-4" d="M18.66,26.57a2.66,2.66,0,0,1,1.84.66,2.16,2.16,0,0,1,.74,1.7,2.44,2.44,0,0,1-.14.87,2.36,2.36,0,0,1-.48.78,5.89,5.89,0,0,1-1.18.94A6.09,6.09,0,0,0,17.72,33h3.57v1.31H15.75a3,3,0,0,1,.46-1.69A6.34,6.34,0,0,1,18,31a9.7,9.7,0,0,0,1.3-.95,1.5,1.5,0,0,0,.36-.51,1.33,1.33,0,0,0,.09-.49,1.17,1.17,0,0,0-.3-.84,1.07,1.07,0,0,0-.83-.33,1,1,0,0,0-.88.47,2.4,2.4,0,0,0-.32,1.27H15.92v-.14a3,3,0,0,1,.74-2.12A2.61,2.61,0,0,1,18.66,26.57Z"/><path class="cls-4" d="M24.89,26.57a2.4,2.4,0,0,1,2.07,1,4.88,4.88,0,0,1,.72,2.91,5.13,5.13,0,0,1-.71,3,2.39,2.39,0,0,1-2.08,1q-2.75,0-2.75-4a5,5,0,0,1,.69-2.9A2.35,2.35,0,0,1,24.89,26.57Zm-1.22,3.85A5,5,0,0,0,24,32.55a1,1,0,0,0,.91.6.88.88,0,0,0,.74-.32A2,2,0,0,0,26,32a7.47,7.47,0,0,0,.12-1.56,4.43,4.43,0,0,0-.32-2,1,1,0,0,0-.94-.59,1,1,0,0,0-.9.6A4.64,4.64,0,0,0,23.67,30.42Z"/><path class="cls-4" d="M30.44,32.6v1.69A1.63,1.63,0,0,1,30,35.44a2,2,0,0,1-1.22.61v-.77a.93.93,0,0,0,.55-.35,1,1,0,0,0,.21-.59v-.08h-.77V32.6Z"/><path class="cls-4" d="M34.27,26.57a2.42,2.42,0,0,1,2.07,1,5,5,0,0,1,.71,2.91,5.13,5.13,0,0,1-.71,3,2.39,2.39,0,0,1-2.07,1q-2.76,0-2.76-4a5,5,0,0,1,.69-2.9A2.37,2.37,0,0,1,34.27,26.57ZM33,30.42a4.85,4.85,0,0,0,.32,2.13,1,1,0,0,0,.91.6.87.87,0,0,0,.73-.32,2,2,0,0,0,.39-.85,6.72,6.72,0,0,0,.13-1.56,4.4,4.4,0,0,0-.33-2,1,1,0,0,0-.93-.59,1,1,0,0,0-.91.6A4.64,4.64,0,0,0,33,30.42Z"/><path class="cls-4" d="M40.75,26.57a2.4,2.4,0,0,1,2.07,1,4.88,4.88,0,0,1,.72,2.91,5.13,5.13,0,0,1-.71,3,2.39,2.39,0,0,1-2.08,1q-2.74,0-2.75-4a5,5,0,0,1,.69-2.9A2.35,2.35,0,0,1,40.75,26.57Zm-1.22,3.85a5,5,0,0,0,.31,2.13,1,1,0,0,0,.91.6.88.88,0,0,0,.74-.32,2,2,0,0,0,.39-.85A7.47,7.47,0,0,0,42,30.42a4.57,4.57,0,0,0-.32-2,1,1,0,0,0-.94-.59,1,1,0,0,0-.9.6A4.64,4.64,0,0,0,39.53,30.42Z"/><path class="cls-4" d="M47.24,26.57a2.4,2.4,0,0,1,2.07,1A4.88,4.88,0,0,1,50,30.46a5.13,5.13,0,0,1-.7,3,2.41,2.41,0,0,1-2.08,1q-2.76,0-2.76-4a4.94,4.94,0,0,1,.7-2.9A2.35,2.35,0,0,1,47.24,26.57ZM46,30.42a5,5,0,0,0,.32,2.13,1,1,0,0,0,.91.6.89.89,0,0,0,.74-.32,2,2,0,0,0,.39-.85,7.47,7.47,0,0,0,.12-1.56,4.4,4.4,0,0,0-.33-2,1,1,0,0,0-.93-.59,1,1,0,0,0-.9.6A4.61,4.61,0,0,0,46,30.42Z"/><path class="cls-2" d="M12.27,85.27h.64v.83a3,3,0,0,1,1.74.71,2.21,2.21,0,0,1,.68,1.59H13.8a1.09,1.09,0,0,0-.28-.74.76.76,0,0,0-.61-.29v1.9a4.51,4.51,0,0,1,2.06.89,2.19,2.19,0,0,1,.63,1.69,2,2,0,0,1-.32,1.07,2.33,2.33,0,0,1-.94.87,3.36,3.36,0,0,1-1.43.38v.91h-.64v-.91a2.86,2.86,0,0,1-1.87-.75,3,3,0,0,1-.81-1.94h1.53v0a1.39,1.39,0,0,0,.31.91,1.48,1.48,0,0,0,.84.48V90.65c-.5-.13-.83-.23-1-.29a3.31,3.31,0,0,1-.61-.3,1.72,1.72,0,0,1-.64-.62,1.94,1.94,0,0,1-.26-1,2.09,2.09,0,0,1,.68-1.59,2.92,2.92,0,0,1,1.82-.72Zm-1,3a.69.69,0,0,0,.24.55,1.79,1.79,0,0,0,.73.31V87.37a1,1,0,0,0-.69.24A.85.85,0,0,0,11.3,88.26Zm1.61,4.65a1.52,1.52,0,0,0,.84-.34.93.93,0,0,0,.32-.72.79.79,0,0,0-.25-.63,2.41,2.41,0,0,0-.91-.38Z"/><path class="cls-2" d="M19.87,86.44V94H18.34V89.09h-1.9V87.94h.11q1.86,0,2.1-1.5Z"/><path class="cls-2" d="M24.48,86.29a2.4,2.4,0,0,1,2.07,1,5,5,0,0,1,.71,2.91,5.13,5.13,0,0,1-.71,3,2.38,2.38,0,0,1-2.07,1c-1.84,0-2.76-1.31-2.76-3.95a5,5,0,0,1,.7-2.91A2.37,2.37,0,0,1,24.48,86.29Zm-1.23,3.85a5,5,0,0,0,.32,2.13,1,1,0,0,0,.91.6.9.9,0,0,0,.74-.32,2.15,2.15,0,0,0,.38-.85,6.72,6.72,0,0,0,.13-1.56,4.4,4.4,0,0,0-.33-2,1,1,0,0,0-.93-.59,1,1,0,0,0-.91.6A4.64,4.64,0,0,0,23.25,90.14Z"/><path class="cls-2" d="M30,92.32V94a1.68,1.68,0,0,1-.45,1.16,2,2,0,0,1-1.23.61V95a1,1,0,0,0,.56-.35,1,1,0,0,0,.21-.59V94h-.78V92.32Z"/><path class="cls-2" d="M33.85,86.29a2.37,2.37,0,0,1,2.07,1,5,5,0,0,1,.71,2.91,5.13,5.13,0,0,1-.7,3,2.4,2.4,0,0,1-2.08,1c-1.84,0-2.76-1.31-2.76-3.95a5,5,0,0,1,.7-2.91A2.37,2.37,0,0,1,33.85,86.29Zm-1.23,3.85a5,5,0,0,0,.32,2.13,1,1,0,0,0,.91.6.89.89,0,0,0,.74-.32A2.31,2.31,0,0,0,35,91.7a7.47,7.47,0,0,0,.12-1.56,4.4,4.4,0,0,0-.33-2,1,1,0,0,0-.93-.59,1,1,0,0,0-.91.6A4.8,4.8,0,0,0,32.62,90.14Z"/><path class="cls-2" d="M40.34,86.29a2.4,2.4,0,0,1,2.07,1,5,5,0,0,1,.71,2.91,5.13,5.13,0,0,1-.71,3,2.38,2.38,0,0,1-2.07,1c-1.84,0-2.76-1.31-2.76-3.95a5.08,5.08,0,0,1,.69-2.91A2.4,2.4,0,0,1,40.34,86.29Zm-1.23,3.85a4.85,4.85,0,0,0,.32,2.13,1,1,0,0,0,.91.6.9.9,0,0,0,.74-.32,2.15,2.15,0,0,0,.38-.85,6.72,6.72,0,0,0,.13-1.56,4.4,4.4,0,0,0-.33-2,1,1,0,0,0-.93-.59,1,1,0,0,0-.91.6A4.64,4.64,0,0,0,39.11,90.14Z"/><path class="cls-2" d="M46.83,86.29a2.37,2.37,0,0,1,2.06,1,4.88,4.88,0,0,1,.72,2.91,5.13,5.13,0,0,1-.71,3,2.38,2.38,0,0,1-2.07,1c-1.84,0-2.76-1.31-2.76-3.95a5.08,5.08,0,0,1,.69-2.91A2.37,2.37,0,0,1,46.83,86.29ZM45.6,90.14a4.85,4.85,0,0,0,.32,2.13,1,1,0,0,0,.91.6.87.87,0,0,0,.73-.32A2,2,0,0,0,48,91.7a7.33,7.33,0,0,0,.13-1.56,4.4,4.4,0,0,0-.33-2,1,1,0,0,0-.94-.59,1,1,0,0,0-.9.6A4.64,4.64,0,0,0,45.6,90.14Z"/><path class="cls-9" d="M222,1V169H1V1H222m1-1H0V170H223V0Z"/></svg>