<svg version="1.1" xmlns="http://www.w3.org/2000/svg" xmlns:xlink="http://www.w3.org/1999/xlink" x="0px" y="0px" viewBox="0 0 64 64" style="enable-background:new 0 0 64 64;" xml:space="preserve" aria-hidden="true" focusable="false" width="24px" height="24px"><style type="text/css">.st0{fill:#0074B3;}</style><title></title><g id="Icons"><path class="st0" d="M32,64C14.3,64,0,49.7,0,32S14.3,0,32,0s32,14.3,32,32c0.1,17.6-14,31.9-31.6,32C32.3,64,32.1,64,32,64z M32,5C17.1,5,5,17.1,5,32s12.1,27,27,27l0,0c14.9,0,27-12.1,27-27S46.9,5,32,5z"></path><polygon class="st0" points="43.4,16.8 31.8,28.5 20.1,16.8 16.5,20.3 28.2,32 16.5,43.7 20.1,47.2 31.8,35.5 43.4,47.2 47,43.7 35.3,32 47,20.3 "></polygon></g></svg>